<svg width="1000" height="1000" viewBox="0 0 1000 1000" fill="none" xmlns="http://www.w3.org/2000/svg">
  <path d="M913.325 465.597C919.213 449.936 900.174 446.403 888.288 443.393C781.994 416.522 586.677 451.376 484.57 492.446C399.909 526.492 298.086 591.031 395.199 682.527C392.843 684.512 383.335 677.271 380.587 675.46C283.583 612.231 150.071 528.128 293.331 418.594C420.082 321.689 726.579 263.803 876.381 314.927C956.571 342.3 1004.79 412.291 913.325 465.618V465.597Z" fill="white"/>
  <path d="M356.904 258.895L276.081 291.59C189.087 332.42 80.3286 415.148 177.071 511.465L203.786 529.372C149.091 519.229 60.4829 484.986 41.8148 427.231C16.1244 347.818 98.5387 289.67 163.55 268.383C225.529 248.055 293.179 246.463 356.904 258.895Z" fill="white"/>
  <path d="M513.511 696.224C497.351 713.848 497.307 723.619 492.138 745.081C491.419 748.091 494.058 749.705 488.409 748.898C460.822 723.074 420.236 680.76 446.69 640.868C487.777 578.926 695.023 561.041 767.863 540.931C785.026 536.198 802.277 530.331 816.3 519.208C809.234 575.72 747.538 601.456 700.257 618.796C644.929 639.08 553.551 652.625 513.533 696.224H513.511Z" fill="white"/>
</svg>
