<svg width="1000" height="1000" viewBox="0 0 1000 1000" fill="none" xmlns="http://www.w3.org/2000/svg">
  <path d="M671.473 734.909C628.338 774.723 578.303 828.441 514.699 834.488C417.38 843.72 320.52 725.494 253.18 666.92C186.437 608.849 99.982 553.94 56.4795 474.909C-35.522 307.775 189.989 209.433 317.815 182.104C487.631 145.796 783.392 160.686 913.602 291.602C1066.69 445.541 831.777 586.148 730.745 678.534C710.713 696.86 691.276 716.606 671.473 734.886V734.909ZM908.491 482.651C965.379 426.413 944.773 344.931 888.436 296.642C715.984 148.843 283.114 148.843 110.663 296.642C54.325 344.931 33.7198 426.39 90.6077 482.651C70.988 392.029 152.675 327.98 225.722 294.397C281.418 268.786 342.661 254.469 403.445 247.574C457.124 193.604 541.929 193.581 595.631 247.574C699.459 258.593 864.851 306.973 904.365 414.708C912.754 437.569 914.404 458.896 908.491 482.628V482.651ZM475.139 235.479C436.496 242.099 401.336 288.716 398.861 326.857C397.188 352.674 424.646 368.801 445.916 377.116C484.33 392.167 517.335 391.892 555.474 376.085C596.479 359.088 608.58 340.67 592.628 297.467C574.475 248.307 525.678 226.82 475.116 235.479H475.139ZM385.59 278.316C366.246 281.317 346.878 284.501 327.854 289.266C245.342 309.928 100.738 366.739 118.158 473.557C119.143 479.536 137.067 520.815 140.895 516.142C137.044 438.829 208.074 387.768 271.654 360.394C303.353 346.741 337.825 336.341 372.09 331.805L385.59 278.316ZM858.204 516.142C868.403 506.956 878.786 486.775 880.941 473.557C898.36 366.739 753.78 309.928 671.244 289.266C652.22 284.501 632.853 281.317 613.508 278.316L627.008 331.805C661.274 336.364 695.746 346.741 727.444 360.394C790.979 387.745 862.1 438.806 858.204 516.142ZM395.629 405.59L373.993 366.189C333.951 377.574 292.466 388.158 255.908 408.339C216.439 430.147 171.172 467.143 177.933 517.654C178.552 522.258 190.379 558.086 194.505 553C195.009 532.75 204.315 512.133 216.531 496.281C233.24 474.611 257.627 456.789 281.578 444.052C317.426 424.97 355.656 412.829 395.606 405.59H395.629ZM804.594 553C808.582 552.634 810.392 548.465 811.974 545.326C842.962 483.797 794.921 437.959 745.322 409.553C708.1 388.226 664.918 376.727 623.479 366.831L603.469 405.59C671.428 417.319 776.998 457.43 800.376 528.741C802.829 536.232 804.617 545.097 804.594 553.023V553ZM735.1 511.881C698.519 473.878 643.19 455.529 590.932 446.595C561.113 441.487 564.413 445.839 539.797 454.2C503.01 466.708 465.879 457.865 431.476 443.365C399.411 449.046 365.054 455.414 334.387 466.662C307.066 476.672 273.121 495.709 254.785 517.677C240.276 535.064 235.578 551.718 237.938 574.419L254.579 579.55C270.325 542.6 307.112 517.585 343.05 502.123C436.175 462.057 586.21 464.302 676.149 512.179C706.977 528.581 729.897 548.877 746.216 580.077L760.656 576.137C763.521 554.489 760.06 536.415 745.758 519.647C741.77 514.997 737.483 514.378 735.1 511.904V511.881ZM679.472 574.282C604.203 508.812 412.842 509.934 332.14 564.912C320.612 572.77 308.739 584.659 301.771 596.525L330.375 602.045C347.68 590.225 365.031 578.359 384.65 570.502C448.048 545.097 556.231 545.555 619.17 572.449C636.978 580.054 652.702 591.371 668.7 602.045L697.304 596.525L679.472 574.282Z" fill="white"/>
</svg>
