<svg width="1000" height="1000" viewBox="0 0 1000 1000" fill="none" xmlns="http://www.w3.org/2000/svg">
<path d="M846.593 278.033C912.597 329.209 911.207 389.341 842.894 438.891C875.59 292.744 635.035 239.762 484.534 242.765C345.105 245.536 124.337 304.774 162.522 438.909C88.1549 389.842 94.7741 321.273 165.443 271.866C320.772 163.238 698 162.827 846.593 278.051V278.033Z" fill="white"/>
<path d="M102.03 466.473C183.77 537.348 350.595 571.668 470.755 574.939C655.553 579.945 909.135 533.916 961.736 378.813C989.65 624.561 548.325 651.052 321.008 612.781C172.675 587.774 6.03891 503.278 41.9385 370.966C48.0631 408.057 70.1117 438.784 102.054 466.473H102.03Z" fill="white"/>
<path d="M727.562 475.5C731.943 307.455 271.303 308.152 276.202 475.5C161.884 404.196 255.756 336.627 360.581 310.762C464.063 285.236 610.347 288.4 705.702 331.301C788.219 368.41 809.82 427.755 727.562 475.5Z" fill="white"/>
<path d="M937.614 551.309C851.752 724.001 557.842 751.618 348.498 719.979C216.466 700.03 104.928 640.774 59.1816 542.174C150.839 634.053 291.775 670.536 439.708 676.9C617.133 684.532 821.059 663.869 937.614 551.291V551.309Z" fill="white"/>
<path d="M643.539 434.655C676.683 461.11 657.438 486.064 622.41 501.616C587.311 427.773 415.893 426.969 381.336 501.58C284.167 452.459 394.904 408.414 464.442 402.658C514.711 398.494 606.815 405.34 643.539 434.673V434.655Z" fill="white"/>
<path d="M758.516 734.333C625.542 830.197 394.573 837.794 259.031 740.821C417.8 786.492 602.456 785.527 758.516 734.333Z" fill="white"/>
<path d="M499.375 497.2C516.665 496.825 543.354 500.15 555.18 510.803C526.889 527.785 476.738 527.731 448.564 510.803C461.591 501.061 481.59 497.594 499.375 497.218V497.2Z" fill="white"/>
</svg>
