<svg width="1000" height="1000" viewBox="0 0 1000 1000" fill="none" xmlns="http://www.w3.org/2000/svg">
<path d="M279.709 671.841C278.481 672.092 277.775 673.434 278.208 674.595C278.845 676.369 280.438 677.78 281.962 678.872C290.178 684.743 309.566 692.73 319.534 696.78C345.408 707.315 373.58 715.734 400.866 721.491L394.653 723.061C394.38 723.129 394.084 723.152 393.811 723.106L370.213 719.579C370.213 719.579 370.076 719.557 370.008 719.534C332.55 709.704 263.279 698.532 246.644 658.712C237.997 638.006 231.397 609.655 228.393 587.788C227.984 584.739 229.873 571.701 230.714 568.22C238.748 535.021 270.88 522.006 300.782 515.408C336.169 507.603 378.928 506.624 415.703 503.462C501.996 496.067 607.518 485.713 690.876 461.526C696.201 459.979 722.644 451.036 723.941 447.032C724.328 443.209 721.529 443.095 719.003 442.049C712.882 439.5 699.637 437.338 693.174 438.067C633.711 444.734 564.827 440.797 504.954 438.067C464.698 436.224 425.693 435.177 386.074 428.26C385.983 428.26 385.915 428.214 385.824 428.191C374.514 424.664 361.906 423.322 350.642 419.932C348.867 419.408 344.793 418.612 345.362 416.291C350.369 416.337 355.307 417.474 360.222 418.271C443.785 431.582 536.267 426.849 621.832 424.801C642.859 424.3 665.753 423.231 687.212 422.207C725.375 420.409 760.397 426.53 769.181 469.149C774.666 495.725 771.07 529.515 767.475 555.978C765.654 569.335 764.698 580.575 755.687 591.747C740.007 611.179 710.811 614.592 687.576 618.779C573.793 639.303 457.325 645.265 342.427 660.1C324.085 662.467 305.06 662.853 287.196 668.292C284.579 669.088 282.44 671.318 279.687 671.841H279.709Z" fill="white"/>
<path d="M309.703 503.484C290.997 503.712 271.676 499.48 256.202 488.603C231.192 471.014 226.436 440.251 228.393 411.285C229.235 398.77 232.034 380.249 234.333 367.689C245.188 308.665 269.947 288.869 328.477 279.494C391.831 269.368 460.215 268.686 524.775 263.703C571.608 260.107 621.809 257.536 667.436 247.798C672.898 246.637 678.314 246.41 682.865 242.337C683.821 241.472 683.798 239.947 682.82 239.106C679.634 236.352 672.261 231.802 670.486 230.914C645.158 218.49 604.31 217.08 576.319 214.099C529.258 209.07 466.814 207.364 422.075 191.936C420.072 191.254 416.226 190.867 416.727 188.364C421.551 186.794 425.989 190.048 429.562 190.389C488.319 195.736 547.099 201.425 605.948 206.249C637.671 208.843 673.535 207.796 700.115 229.026C719.162 244.248 735.342 272.964 744.809 295.331C750.589 309.029 761.558 338.632 750.748 350.964C748.791 353.194 735.592 359.907 732.589 360.544C720.323 363.229 705.736 363.229 693.174 364.73C592.931 376.631 492.142 386.233 391.99 398.497C354.283 403.116 315.847 403.572 281.234 422.503C271.221 427.987 251.719 441.548 247.236 451.924C241.182 465.895 249.534 476.225 261.413 483.415C273.884 490.947 288.607 496.089 302.739 499.571C305.402 500.231 308.747 498.956 309.703 503.507V503.484Z" fill="white"/>
<path d="M389.965 870.393L382.068 865.706C381.204 865.182 380.976 865.023 380.726 864.818C357.332 843.839 322.514 822.541 303.695 797.808C300.281 793.302 296.299 785.703 297.983 780.105C298.461 778.535 298.506 777.943 300.714 774.894C301.419 773.916 302.989 772.665 304.059 772.073C316.848 764.974 330.616 759.513 344.748 755.508C373.33 747.385 402.959 743.676 431.632 739.33C502.792 728.567 574.521 720.626 645.613 709.522C666.139 706.314 692.992 704.266 712.813 697.44C713.041 697.371 713.245 697.258 713.473 697.144C716.409 695.46 716.318 691.114 713.541 689.157C711.584 687.769 709.536 686.427 708.831 686.063C678.473 670.044 628.045 669.088 594.183 665.948C570.106 663.718 546.849 659.759 523.046 655.823C522.044 655.663 517.061 654.184 517.834 652.114C522.044 652.41 526.596 651.659 530.76 652.068C590.382 657.916 667.641 659.941 724.646 678.19C731.087 680.26 737.64 684.288 743.876 687.2C745.059 687.746 745.969 688.725 746.425 689.931C749.019 696.825 747.244 702.969 745.4 710.205C727.923 779.445 693.265 799.742 625.815 810.595C563.757 820.584 499.811 818.195 437.936 836.763C425.829 840.38 407.237 847.639 399.91 858.197C397.862 861.155 397.179 863.499 397.315 865.66C397.566 869.665 393.47 872.441 390.011 870.393H389.965Z" fill="white"/>
<path d="M338.922 269.641C338.649 270.756 337.534 271.462 336.419 271.211C325.996 268.913 319.397 264.226 313.935 254.487C306.835 241.881 305.219 228.07 310.453 214.554C310.567 214.235 310.772 213.962 311.022 213.735C323.971 201.903 335.349 188.182 348.298 176.418C365.251 161.036 384.822 145.746 404.12 133.14C415.93 125.426 427.4 122.195 436.593 110.136C449.656 92.9792 450.93 63.8541 470.25 50.634C473.186 48.6316 485.566 44.1036 489.025 43.6485C495.829 42.7838 514.011 42.7838 520.816 43.6485C529.076 44.6952 541.365 53.0687 546.508 59.5763C562.164 79.304 568.104 106.154 591.134 122.013C591.384 122.173 591.611 122.332 591.862 122.446C593.842 123.424 595.07 125.563 594.342 127.634C591.702 135.142 582.395 140.467 575.318 143.834C564.963 148.749 549.443 153.368 538.224 156.304C485.361 170.138 430.54 175.667 377.676 190.002C355.625 195.987 327.748 201.88 316.575 224.042C307.518 241.995 319.829 261.222 337.42 267.07C338.512 267.434 339.15 268.526 338.876 269.641H338.922Z" fill="white"/>
<path d="M526.391 832.78C547.577 839.379 570.698 842.701 591.201 851.211C597.915 853.987 615.483 861.86 612.82 870.962C610.476 878.448 575.112 891.645 561.345 908.688C553.13 918.859 552.583 928.006 547.258 938.2C543.503 945.39 536.153 950.692 528.439 953.058C518.153 956.198 484.496 956.79 473.163 955.356C464.151 954.219 452.636 944.776 447.448 937.472C439.711 926.572 436.502 911.441 427.604 899.859C425.624 897.288 422.734 895.399 420.686 892.896C419.207 891.076 417.523 890.712 420.663 888.892C422.188 888.027 426.057 886.753 427.945 886.252C477.236 873.237 534.924 881.884 581.871 867.753C588.926 865.637 596.117 863.248 586.559 857.833C570.584 848.776 550.057 841.677 532.33 836.762C527.847 835.511 526.413 832.758 526.413 832.758L526.391 832.78Z" fill="white"/>
</svg>
