<svg width="997" height="1433" viewBox="0 0 997 1433" fill="none" xmlns="http://www.w3.org/2000/svg">
<path d="M728.676 137.088C746.492 25.9641 715.032 33.7069 609.691 6.9831C582.559 0.0996752 551.111 -16.1434 527.625 48.4058L517.72 79.0729L422.069 65.4908C380.204 133.152 290.823 116.834 213.626 156.025C170.461 177.937 132.141 215.43 99.1484 250.314C333.379 452.027 679.462 517.552 981.623 466.253C977.097 328.095 827.791 279.659 799.007 156.49L728.676 137.088Z" fill="black"/>
<path d="M996.568 555.36C659.322 605.991 313.964 550.488 46.4548 332.001C-28.9444 473.653 0.472646 634.069 43.1851 782.157C69.8879 874.743 67.0631 909.653 170.405 953.415C319.068 1016.37 511.448 984.082 667.672 950.436C718.564 939.475 804.254 917.825 846.312 889.962C933.313 832.329 1003.17 657.988 996.568 555.362V555.36Z" fill="black"/>
<path d="M697.312 1032.19C515.296 1070.28 325.327 1078.19 143.816 1032.13L263.54 1359.77L218.477 1359.85C256.923 1456.69 271.576 1443.36 339.405 1398.27L293.407 1367.31L697.311 1032.19H697.312Z" fill="black"/>
</svg>
